<svg width="130" height="130" viewBox="0 0 130 130" fill="none" xmlns="http://www.w3.org/2000/svg">
<rect width="130" height="130" fill="#AA0707"/>
<path d="M55.9393 61.5934L48.2726 69.7248V90.82H36.5169V23.1666H48.2726V54.9024L54.7777 46.8639L74.5719 23.1666H88.7903L63.6526 53.1367L90.2307 90.82H76.2911L55.9393 61.5934Z" fill="white"/>
<path d="M89.4411 68.2836L54.7569 110.628C51.4985 114.606 48.0209 116.823 44.3242 117.278C40.6318 117.778 36.8805 116.467 33.0702 113.346C31.4647 112.031 30.0858 110.561 28.9338 108.937L34.5869 102.035C35.3208 102.997 36.263 103.948 37.4132 104.891C40.3129 107.266 43.0941 106.901 45.757 103.797L80.7062 61.1288L89.4411 68.2836ZM88.2249 50.4097C89.3242 49.0677 90.6563 48.2969 92.2213 48.0973C93.8102 47.9172 95.3955 48.475 96.9772 49.7705C98.5588 51.066 99.4178 52.5104 99.5543 54.1037C99.6907 55.697 99.2093 57.1647 98.1101 58.5066C97.0305 59.8247 95.6962 60.5737 94.1072 60.7537C92.5379 60.9098 90.9624 60.34 89.3808 59.0445C87.7992 57.749 86.9303 56.3166 86.7743 54.7473C86.6618 53.1736 87.1454 51.7277 88.2249 50.4097Z" fill="white"/>
</svg>
